<svg width="224" height="224" viewBox="0 0 224 224" fill="none" xmlns="http://www.w3.org/2000/svg">
<path d="M181.96 47.8978C168.647 41.7933 154.563 37.4558 140.08 35C138.276 38.1963 136.168 42.4953 134.715 45.9153C119.1 43.6143 103.628 43.6143 88.3 45.9153C86.8473 42.496 84.692 38.1963 82.8714 35C68.3743 37.457 54.2782 41.8055 40.959 47.9296C14.4548 87.1809 7.26975 125.456 10.8619 163.19C28.4412 176.055 45.4774 183.87 62.2264 188.984C66.389 183.375 70.0686 177.435 73.2273 171.228C67.2136 168.984 61.4162 166.219 55.9041 162.966C57.3547 161.912 58.7711 160.814 60.1512 159.673C93.5527 174.984 129.845 174.984 162.849 159.673C164.235 160.807 165.651 161.904 167.095 162.966C161.574 166.228 155.766 168.999 149.74 171.244C152.917 177.477 156.59 183.422 160.741 189C177.506 183.887 194.558 176.071 212.137 163.19C216.353 119.447 204.937 81.5235 181.96 47.8978ZM77.7781 139.984C67.7511 139.984 59.528 130.81 59.528 119.639C59.528 108.468 67.5758 99.279 77.7781 99.279C87.9813 99.279 96.2036 108.452 96.0283 119.639C96.0442 130.81 87.9813 139.984 77.7781 139.984ZM145.221 139.984C135.194 139.984 126.972 130.81 126.972 119.639C126.972 108.468 135.019 99.279 145.221 99.279C155.424 99.279 163.646 108.452 163.471 119.639C163.471 130.81 155.424 139.984 145.221 139.984Z" fill="black"/>
</svg>
