<svg width="224" height="224" viewBox="0 0 224 224" fill="none" xmlns="http://www.w3.org/2000/svg">
<path d="M23.8413 188.264H56.1365V109.844L10 75.2472V174.426C10 182.072 16.1939 188.265 23.8413 188.265V188.264Z" fill="#4285F4"/>
<path d="M166.864 188.264H199.159C206.806 188.264 213 182.071 213 174.426V75.2472L166.864 109.844V188.264Z" fill="#34A853"/>
<path d="M166.864 49.876V109.844L213 75.2472V56.7956C213 39.693 193.473 29.9251 179.782 40.189L166.864 49.876Z" fill="#FBBC04"/>
<path fill-rule="evenodd" clip-rule="evenodd" d="M56.1365 109.844V49.876L111.5 91.3928L166.863 49.876V109.844L111.5 151.361L56.1365 109.844Z" fill="#EA4335"/>
<path d="M10 56.7956V75.2472L56.1365 109.844V49.876L43.2182 40.189C29.5269 29.9251 10 39.693 10 56.7948V56.7956Z" fill="#C5221F"/>
</svg>
