<svg width="150" height="150" viewBox="0 0 150 150" fill="none" xmlns="http://www.w3.org/2000/svg">
<path d="M121.848 32.0743C112.933 27.9865 103.502 25.0819 93.8037 23.4374C92.5957 25.5777 91.1843 28.4565 90.211 30.7468C79.7544 29.2059 69.3939 29.2059 59.1296 30.7468C58.1568 28.4571 56.7135 25.5777 55.4943 23.4374C45.7865 25.0827 36.3471 27.9946 27.428 32.0956C9.67969 58.38 4.86824 84.0107 7.2737 109.279C19.0456 117.894 30.4537 123.127 41.6696 126.552C44.457 122.795 46.9211 118.818 49.0362 114.662C45.0092 113.159 41.1271 111.308 37.4359 109.129C38.4073 108.423 39.3557 107.688 40.28 106.924C62.647 117.177 86.95 117.177 109.051 106.924C109.979 107.683 110.927 108.418 111.894 109.129C108.197 111.313 104.308 113.169 100.272 114.673C102.4 118.846 104.859 122.827 107.639 126.562C118.866 123.138 130.284 117.905 142.056 109.279C144.879 79.987 137.235 54.5915 121.848 32.0743ZM52.0837 93.7394C45.3691 93.7394 39.8626 87.5962 39.8626 80.1156C39.8626 72.635 45.2518 66.4814 52.0837 66.4814C58.9161 66.4814 64.4221 72.624 64.3048 80.1156C64.3154 87.5962 58.9161 93.7394 52.0837 93.7394ZM97.2463 93.7394C90.5317 93.7394 85.0257 87.5962 85.0257 80.1156C85.0257 72.635 90.4143 66.4814 97.2463 66.4814C104.079 66.4814 109.585 72.624 109.467 80.1156C109.467 87.5962 104.079 93.7394 97.2463 93.7394Z" fill="white"/>
</svg>
