<svg width="151" height="150" viewBox="0 0 151 150" fill="none" xmlns="http://www.w3.org/2000/svg">
<path d="M74.7371 8.70532C37.2035 8.70532 6.76782 39.0985 6.76782 76.5916C6.76782 106.585 26.243 132.032 53.2494 141.009C56.6463 141.637 57.8936 139.536 57.8936 137.743C57.8936 136.124 57.8299 130.777 57.8012 125.104C38.8921 129.21 34.9021 117.094 34.9021 117.094C31.8101 109.248 27.3549 107.161 27.3549 107.161C21.1884 102.948 27.8201 103.035 27.8201 103.035C34.6451 103.513 38.2389 110.03 38.2389 110.03C44.3014 120.408 54.1399 117.408 58.0184 115.673C58.6285 111.286 60.3899 108.29 62.3339 106.595C47.2368 104.879 31.3667 99.058 31.3667 73.0461C31.3667 65.6344 34.0217 59.5782 38.3696 54.8241C37.6639 53.1142 35.3375 46.2101 39.028 36.8588C39.028 36.8588 44.7358 35.0344 57.7247 43.8176C63.1463 42.3135 68.9608 41.5594 74.7371 41.5334C80.5134 41.5594 86.3327 42.313 91.7643 43.8176C104.737 35.0349 110.437 36.8593 110.437 36.8593C114.137 46.2095 111.809 53.1148 111.104 54.8241C115.462 59.5782 118.099 65.6344 118.099 73.0461C118.099 99.1201 102.198 104.861 87.0628 106.542C89.5007 108.648 91.673 112.78 91.673 119.113C91.673 128.196 91.5944 135.507 91.5944 137.743C91.5944 139.55 92.8179 141.666 96.263 140.999C123.255 132.013 142.705 106.576 142.705 76.5921C142.705 39.0985 112.274 8.70532 74.7371 8.70532ZM32.2248 105.411C32.075 105.748 31.5435 105.849 31.0598 105.617C30.5664 105.396 30.2898 104.936 30.4491 104.598C30.5957 104.251 31.1282 104.154 31.62 104.387C32.1138 104.608 32.3952 105.072 32.2248 105.411ZM35.568 108.39C35.2441 108.69 34.6101 108.551 34.1799 108.077C33.7355 107.604 33.6521 106.97 33.9808 106.666C34.3153 106.366 34.9297 106.506 35.3752 106.979C35.8202 107.458 35.9062 108.087 35.568 108.39ZM37.8619 112.202C37.4451 112.491 36.7643 112.22 36.3433 111.617C35.9269 111.013 35.927 110.289 36.3523 109.999C36.7744 109.709 37.4451 109.97 37.8715 110.569C38.2867 111.183 38.2867 111.907 37.8614 112.203L37.8619 112.202ZM41.7404 116.618C41.3682 117.028 40.5743 116.918 39.9934 116.358C39.3992 115.81 39.2341 115.034 39.6079 114.623C39.9849 114.212 40.783 114.328 41.3682 114.883C41.9576 115.43 42.1381 116.212 41.7404 116.618ZM46.7542 118.108C46.5895 118.64 45.8249 118.882 45.0555 118.656C44.2866 118.423 43.7837 117.8 43.9388 117.263C44.0986 116.727 44.8664 116.476 45.6417 116.718C46.4095 116.949 46.914 117.567 46.7542 118.108ZM52.4593 118.741C52.4784 119.3 51.8258 119.764 51.0176 119.775C50.2052 119.793 49.5473 119.34 49.5382 118.788C49.5382 118.224 50.1765 117.764 50.9895 117.75C51.7977 117.734 52.4593 118.184 52.4593 118.741ZM58.0641 118.526C58.1607 119.072 57.5994 119.633 56.7965 119.783C56.008 119.927 55.2773 119.589 55.177 119.048C55.0793 118.488 55.6512 117.927 56.4386 117.782C57.2426 117.642 57.9616 117.971 58.0641 118.526Z" fill="black"/>
</svg>
