<svg width="150" height="150" viewBox="0 0 150 150" fill="none" xmlns="http://www.w3.org/2000/svg">
<path d="M74.6657 8.70532C37.1321 8.70532 6.69641 39.0985 6.69641 76.5916C6.69641 106.585 26.1716 132.032 53.178 141.009C56.5749 141.637 57.8222 139.536 57.8222 137.743C57.8222 136.124 57.7585 130.777 57.7298 125.104C38.8207 129.21 34.8307 117.094 34.8307 117.094C31.7387 109.248 27.2835 107.161 27.2835 107.161C21.1169 102.948 27.7487 103.035 27.7487 103.035C34.5737 103.513 38.1675 110.03 38.1675 110.03C44.23 120.408 54.0685 117.408 57.947 115.673C58.5571 111.286 60.3184 108.29 62.2625 106.595C47.1654 104.879 31.2953 99.058 31.2953 73.0461C31.2953 65.6344 33.9503 59.5782 38.2982 54.8241C37.5925 53.1142 35.2661 46.2101 38.9566 36.8588C38.9566 36.8588 44.6644 35.0344 57.6533 43.8176C63.0749 42.3135 68.8894 41.5594 74.6657 41.5334C80.442 41.5594 86.2613 42.313 91.6929 43.8176C104.666 35.0349 110.366 36.8593 110.366 36.8593C114.065 46.2095 111.738 53.1148 111.032 54.8241C115.39 59.5782 118.027 65.6344 118.027 73.0461C118.027 99.1201 102.127 104.861 86.9914 106.542C89.4293 108.648 91.6016 112.78 91.6016 119.113C91.6016 128.196 91.523 135.507 91.523 137.743C91.523 139.55 92.7465 141.666 96.1916 140.999C123.183 132.013 142.634 106.576 142.634 76.5921C142.634 39.0985 112.203 8.70532 74.6657 8.70532ZM32.1534 105.411C32.0036 105.748 31.4721 105.849 30.9883 105.617C30.495 105.396 30.2184 104.936 30.3777 104.598C30.5242 104.251 31.0568 104.154 31.5485 104.387C32.0424 104.608 32.3238 105.072 32.1534 105.411ZM35.4966 108.39C35.1727 108.69 34.5386 108.551 34.1085 108.077C33.6641 107.604 33.5807 106.97 33.9094 106.666C34.2439 106.366 34.8583 106.506 35.3038 106.979C35.7488 107.458 35.8348 108.087 35.4966 108.39ZM37.7905 112.202C37.3737 112.491 36.6929 112.22 36.2718 111.617C35.8555 111.013 35.8555 110.289 36.2809 109.999C36.703 109.709 37.3737 109.97 37.8001 110.569C38.2153 111.183 38.2153 111.907 37.79 112.203L37.7905 112.202ZM41.669 116.618C41.2968 117.028 40.5029 116.918 39.922 116.358C39.3278 115.81 39.1626 115.034 39.5365 114.623C39.9135 114.212 40.7116 114.328 41.2968 114.883C41.8862 115.43 42.0667 116.212 41.669 116.618ZM46.6828 118.108C46.5181 118.64 45.7535 118.882 44.9841 118.656C44.2152 118.423 43.7123 117.8 43.8674 117.263C44.0272 116.727 44.795 116.476 45.5703 116.718C46.3381 116.949 46.8426 117.567 46.6828 118.108ZM52.3879 118.741C52.407 119.3 51.7544 119.764 50.9462 119.775C50.1338 119.793 49.4758 119.34 49.4668 118.788C49.4668 118.224 50.1051 117.764 50.9181 117.75C51.7262 117.734 52.3879 118.184 52.3879 118.741ZM57.9926 118.526C58.0893 119.072 57.528 119.633 56.7251 119.783C55.9366 119.927 55.2059 119.589 55.1056 119.048C55.0079 118.488 55.5798 117.927 56.3672 117.782C57.1712 117.642 57.8902 117.971 57.9926 118.526Z" fill="white"/>
</svg>
