<svg width="151" height="150" viewBox="0 0 151 150" fill="none" xmlns="http://www.w3.org/2000/svg" id="github-logo">

  <style>
        #github-logo {
            --logo-color: #24292f;
        }
        @media (prefers-color-scheme: dark) {
            #github-logo {
                --logo-color: #ededed;
            }
        }
        #github-logo path {
            fill: var(--logo-color);
            transition: fill 0.3s ease;
        }
    </style>
<path d="M75.0004 24C45.7328 24 22 47.6407 22 76.8039C22 100.134 37.1862 119.928 58.245 126.91C60.8937 127.398 61.8664 125.764 61.8664 124.369C61.8664 123.11 61.8167 118.951 61.7943 114.539C47.0495 117.732 43.9383 108.308 43.9383 108.308C41.5272 102.205 38.0532 100.582 38.0532 100.582C33.2447 97.3045 38.4159 97.3721 38.4159 97.3721C43.7379 97.7442 46.5402 102.813 46.5402 102.813C51.2676 110.886 58.9393 108.552 61.9637 107.203C62.4394 103.79 63.8129 101.46 65.3287 100.142C53.5565 98.8069 41.1814 94.279 41.1814 74.0462C41.1814 68.2811 43.2518 63.5705 46.6421 59.8726C46.0918 58.5426 44.2778 53.1723 47.1555 45.8986C47.1555 45.8986 51.6063 44.4795 61.7347 51.3114C65.9623 50.1415 70.4962 49.5548 75.0004 49.5346C79.5046 49.5548 84.0423 50.141 88.2777 51.3114C98.3937 44.4799 102.838 45.899 102.838 45.899C105.723 53.1719 103.908 58.543 103.358 59.8726C106.756 63.5705 108.812 68.2811 108.812 74.0462C108.812 94.3273 96.4137 98.7929 84.6116 100.1C86.5126 101.739 88.2065 104.952 88.2065 109.879C88.2065 116.944 88.1452 122.63 88.1452 124.369C88.1452 125.775 89.0992 127.421 91.7857 126.902C112.833 119.913 128 100.127 128 76.8043C128 47.6407 104.27 24 75.0004 24ZM41.8506 99.2203C41.7338 99.4826 41.3193 99.5614 40.9421 99.3812C40.5575 99.2091 40.3417 98.8515 40.4659 98.5883C40.5802 98.3181 40.9955 98.2426 41.379 98.4237C41.764 98.5961 41.9835 98.9571 41.8506 99.2203ZM44.4575 101.538C44.2049 101.771 43.7105 101.663 43.3751 101.294C43.0286 100.926 42.9636 100.434 43.2199 100.197C43.4807 99.9632 43.9598 100.073 44.3072 100.441C44.6542 100.813 44.7213 101.302 44.4575 101.538ZM46.2463 104.503C45.9212 104.728 45.3904 104.517 45.062 104.048C44.7374 103.578 44.7374 103.015 45.0691 102.789C45.3983 102.564 45.9212 102.767 46.2537 103.233C46.5775 103.71 46.5775 104.273 46.2458 104.504L46.2463 104.503ZM49.2706 107.937C48.9803 108.257 48.3613 108.171 47.9083 107.735C47.445 107.31 47.3162 106.706 47.6077 106.386C47.9017 106.066 48.524 106.156 48.9803 106.588C49.4399 107.013 49.5807 107.622 49.2706 107.937ZM53.1801 109.097C53.0518 109.51 52.4555 109.698 51.8556 109.523C51.256 109.342 50.8639 108.857 50.9848 108.439C51.1094 108.023 51.7082 107.827 52.3127 108.015C52.9114 108.195 53.3048 108.676 53.1801 109.097ZM57.6288 109.589C57.6437 110.024 57.1349 110.385 56.5047 110.393C55.8711 110.407 55.3581 110.055 55.3511 109.626C55.3511 109.187 55.8488 108.829 56.4827 108.818C57.1129 108.806 57.6288 109.156 57.6288 109.589ZM61.9993 109.422C62.0746 109.847 61.637 110.283 61.0109 110.399C60.396 110.511 59.8263 110.249 59.748 109.828C59.6718 109.392 60.1178 108.956 60.7318 108.843C61.3587 108.734 61.9194 108.99 61.9993 109.422Z"/>
</svg>
