<svg width="151" height="150" viewBox="0 0 151 150" fill="none" xmlns="http://www.w3.org/2000/svg">
<path d="M16.2062 126.07H37.8325V73.5565L6.9375 50.3888V116.803C6.9375 121.923 11.0852 126.07 16.2062 126.07V126.07Z" fill="#4285F4"/>
<path d="M111.98 126.07H133.607C138.727 126.07 142.875 121.923 142.875 116.803V50.3888L111.98 73.5565V126.07Z" fill="#34A853"/>
<path d="M111.98 33.3991V73.5565L142.875 50.3888V38.0328C142.875 26.5802 129.799 20.0392 120.631 26.9123L111.98 33.3991Z" fill="#FBBC04"/>
<path fill-rule="evenodd" clip-rule="evenodd" d="M37.8325 73.5564V33.399L74.9063 61.2005L111.98 33.399V73.5564L74.9063 101.358L37.8325 73.5564Z" fill="#EA4335"/>
<path d="M6.9375 38.0328V50.3888L37.8325 73.5565V33.3992L29.1819 26.9123C20.0135 20.0392 6.9375 26.5802 6.9375 38.0323V38.0328Z" fill="#C5221F"/>
</svg>
