<svg width="151" height="150" viewBox="0 0 151 150" fill="none" xmlns="http://www.w3.org/2000/svg">
<g clip-path="url(#clip0_266_1154)">
<path fill-rule="evenodd" clip-rule="evenodd" d="M60.7644 24C55.0707 24.0042 50.4628 28.6156 50.467 34.2979C50.4628 39.9802 55.0749 44.5916 60.7686 44.5958H71.0703V34.3021C71.0745 28.6198 66.4623 24.0084 60.7644 24C60.7686 24 60.7686 24 60.7644 24ZM60.7644 51.4667H33.3017C27.608 51.4709 22.9958 56.0822 23 61.7646C22.9916 67.4469 27.6038 72.0583 33.2975 72.0667H60.7644C66.4581 72.0625 71.0703 67.4511 71.0661 61.7688C71.0703 56.0822 66.4581 51.4709 60.7644 51.4667Z" fill="#36C5F0"/>
<path fill-rule="evenodd" clip-rule="evenodd" d="M126 61.7646C126.004 56.0822 121.392 51.4709 115.698 51.4667C110.005 51.4709 105.392 56.0822 105.397 61.7646V72.0667H115.698C121.392 72.0625 126.004 67.4511 126 61.7646ZM98.533 61.7646V34.2979C98.5372 28.6198 93.9292 24.0084 88.2355 24C82.5418 24.0042 77.9296 28.6156 77.9338 34.2979V61.7646C77.9254 67.4469 82.5376 72.0583 88.2313 72.0667C93.925 72.0625 98.5372 67.4511 98.533 61.7646Z" fill="#2EB67D"/>
<path fill-rule="evenodd" clip-rule="evenodd" d="M88.2314 127C93.9251 126.996 98.5373 122.384 98.5331 116.702C98.5373 111.02 93.9251 106.408 88.2314 106.404H77.9297V116.702C77.9255 122.38 82.5377 126.992 88.2314 127ZM88.2314 99.5292H115.698C121.392 99.525 126.004 94.9136 126 89.2313C126.008 83.549 121.396 78.9376 115.703 78.9292H88.2356C82.5419 78.9334 77.9297 83.5448 77.9339 89.2271C77.9297 94.9136 82.5377 99.525 88.2314 99.5292Z" fill="#ECB22E"/>
<path fill-rule="evenodd" clip-rule="evenodd" d="M23 89.2312C22.9958 94.9136 27.608 99.5249 33.3017 99.5291C38.9954 99.5249 43.6076 94.9136 43.6034 89.2312V78.9333H33.3017C27.608 78.9375 22.9958 83.5489 23 89.2312ZM50.4669 89.2312V116.698C50.4585 122.38 55.0707 126.992 60.7644 127C66.4581 126.996 71.0703 122.384 71.0661 116.702V89.2396C71.0745 83.5573 66.4623 78.9459 60.7686 78.9375C55.0707 78.9375 50.4627 83.5489 50.4669 89.2312Z" fill="#E01E5A"/>
</g>
<defs>
<clipPath id="clip0_266_1154">
<rect width="103" height="103" fill="white" transform="translate(23 24)"/>
</clipPath>
</defs>
</svg>
