<svg width="151" height="150" viewBox="0 0 151 150" fill="none" xmlns="http://www.w3.org/2000/svg">
<g clip-path="url(#clip0_266_1154)">
<path fill-rule="evenodd" clip-rule="evenodd" d="M56.7069 7.36609C49.1925 7.37163 43.1109 13.4576 43.1165 20.9571C43.1109 28.4565 49.198 34.5425 56.7124 34.548H70.3084V20.9626C70.314 13.4632 64.2269 7.37717 56.7069 7.36609C56.7125 7.36609 56.7125 7.36609 56.7069 7.36609ZM56.7069 43.6161H20.4621C12.9476 43.6216 6.86055 49.7076 6.8661 57.2071C6.855 64.7065 12.9421 70.7925 20.4565 70.8036H56.7069C64.2213 70.798 70.3084 64.712 70.3029 57.2126C70.3084 49.7076 64.2213 43.6216 56.7069 43.6161Z" fill="#36C5F0"/>
<path fill-rule="evenodd" clip-rule="evenodd" d="M142.803 57.2071C142.809 49.7076 136.722 43.6216 129.208 43.6161C121.693 43.6216 115.606 49.7076 115.612 57.2071V70.8036H129.208C136.722 70.798 142.809 64.712 142.803 57.2071ZM106.553 57.2071V20.9571C106.559 13.4632 100.477 7.37717 92.9627 7.36609C85.4482 7.37163 79.3612 13.4576 79.3667 20.9571V57.2071C79.3556 64.7065 85.4427 70.7925 92.9571 70.8036C100.472 70.798 106.559 64.712 106.553 57.2071Z" fill="#2EB67D"/>
<path fill-rule="evenodd" clip-rule="evenodd" d="M92.9573 143.304C100.472 143.298 106.559 137.212 106.553 129.713C106.559 122.213 100.472 116.127 92.9573 116.122H79.3613V129.713C79.3558 137.207 85.4429 143.293 92.9573 143.304ZM92.9573 107.048H129.208C136.722 107.043 142.809 100.957 142.804 93.4571C142.815 85.9577 136.728 79.8717 129.213 79.8606H92.9629C85.4484 79.8661 79.3613 85.9521 79.3669 93.4516C79.3613 100.957 85.4429 107.043 92.9573 107.048Z" fill="#ECB22E"/>
<path fill-rule="evenodd" clip-rule="evenodd" d="M6.86609 93.4571C6.86054 100.956 12.9476 107.043 20.4621 107.048C27.9765 107.043 34.0636 100.956 34.058 93.4571V79.8661H20.4621C12.9476 79.8716 6.86054 85.9576 6.86609 93.4571ZM43.1165 93.4571V129.707C43.1054 137.206 49.1924 143.293 56.7069 143.304C64.2213 143.298 70.3084 137.212 70.3029 129.713V93.4682C70.314 85.9687 64.2269 79.8827 56.7124 79.8716C49.1924 79.8716 43.1109 85.9576 43.1165 93.4571Z" fill="#E01E5A"/>
</g>
<defs>
<clipPath id="clip0_266_1154">
<rect width="135.938" height="135.938" fill="white" transform="translate(6.86609 7.36609)"/>
</clipPath>
</defs>
</svg>
