<svg width="160" height="37" viewBox="0 0 160 37" fill="none" xmlns="http://www.w3.org/2000/svg" id="logo">
<style>
    #logo {
        --logo-color: #000000;
    }
    @media (prefers-color-scheme: dark) {
        #logo {
            --logo-color: #ffffff;
        }
    }
    #logo path {
        fill: var(--logo-color);
        transition: fill 0.3s ease;
    }
</style>
<path d="M0.549316 12.4703C0.549316 11.4173 0.675857 10.3228 0.928939 9.1845C1.18202 8.04131 1.59328 6.9225 2.16271 5.8305C2.73214 4.7385 3.51248 3.75375 4.50372 2.87625C5.50022 1.99387 6.72872 1.29431 8.18394 0.78C9.64444 0.260813 11.3844 0 13.4038 0H32.1529V36.7965H17.8221V18.3983H7.79378C8.5372 19.7243 9.32281 21.0576 10.1453 22.3958C10.9678 23.7291 11.7376 25.0453 12.4547 26.3445C13.1718 27.6461 13.7544 28.9234 14.2052 30.1763C14.6533 31.4243 14.8801 32.6284 14.8801 33.7838C14.8801 34.2981 14.83 34.8075 14.7324 35.3145C14.6402 35.8166 14.4899 36.309 14.279 36.7965H0.549316V12.4703ZM4.69353 9.3795C4.69353 10.5836 4.91761 11.8341 5.36841 13.1333C5.81658 14.4349 6.40183 15.7609 7.11889 17.1113H17.8221V1.55025C16.8942 1.55025 16.0427 1.55025 15.2702 1.55025C14.5031 1.55025 13.4697 1.55025 12.17 1.55025C10.5803 1.55025 9.2859 1.84031 8.28939 2.418C7.29816 2.99081 6.54155 3.70013 6.0222 4.5435C5.50813 5.38931 5.15751 6.25463 4.9677 7.137C4.78316 8.02181 4.69353 8.77013 4.69353 9.3795Z"/>
<path d="M34.495 0H48.8257V35.3633C51.4251 35.0196 53.7819 34.1494 55.8909 32.7503C57.9999 31.3536 59.7557 29.445 61.1635 27.027C62.5686 24.609 63.5097 21.7328 63.9895 18.3983H64.3797V36.7965H34.495V0Z"/>
<path d="M66.769 0H81.0998V35.3633C83.6991 35.0196 86.056 34.1494 88.165 32.7503C90.274 31.3536 92.0297 29.445 93.4375 27.027C94.8426 24.609 95.7838 21.7328 96.2636 18.3983H96.6538V36.7965H66.769V0Z"/>
<path d="M110.982 36.7965V0H125.312V36.7965H110.982Z"/>
<path d="M127.696 0H142.744L158.023 33.6278V30.9465C158.023 28.5943 157.77 26.3884 157.264 24.3263C156.763 22.2666 156.149 20.3093 155.419 18.4568C154.686 16.6043 153.956 14.8346 153.225 13.143C152.493 11.4465 151.876 9.81581 151.369 8.2485C150.869 6.67631 150.621 5.1285 150.621 3.6075C150.621 2.4765 150.718 1.63313 150.916 1.0725C151.119 0.507 151.34 0.151125 151.58 0H159.458V36.7965H144.294L129.13 3.12975V5.85C129.13 8.20463 129.378 10.4106 129.879 12.4703C130.385 14.5324 131.002 16.4873 131.735 18.3398C132.465 20.1923 133.195 21.9668 133.928 23.6633C134.658 25.3549 135.272 26.9856 135.773 28.5578C136.279 30.1251 136.533 31.668 136.533 33.189C136.533 34.32 136.43 35.1683 136.227 35.7338C136.029 36.2944 135.81 36.6478 135.573 36.7965H127.696V0Z"/>
</svg>