<svg width="224" height="224" viewBox="0 0 224 224" fill="white" xmlns="http://www.w3.org/2000/svg">
<path d="M111.501 13C55.4506 13 10 58.3871 10 114.377C10 159.168 39.0829 197.169 79.4125 210.573C84.4851 211.512 86.3478 208.374 86.3478 205.696C86.3478 203.279 86.2527 195.293 86.2098 186.823C57.9722 192.954 52.0139 174.861 52.0139 174.861C47.3964 163.143 40.7434 160.027 40.7434 160.027C31.5347 153.735 41.438 153.865 41.438 153.865C51.6301 154.58 56.9969 164.312 56.9969 164.312C66.0502 179.809 80.7423 175.329 86.5342 172.738C87.4453 166.187 90.0756 161.714 92.9786 159.183C70.4337 156.62 46.7343 147.927 46.7343 109.082C46.7343 98.0141 50.6991 88.9702 57.1919 81.8707C56.1381 79.3173 52.6641 69.0071 58.1752 55.0425C58.1752 55.0425 66.6988 52.318 86.0957 65.4344C94.1919 63.1882 102.875 62.062 111.501 62.0232C120.127 62.062 128.817 63.1875 136.928 65.4344C156.301 52.3188 164.813 55.0433 164.813 55.0433C170.337 69.0063 166.862 79.3181 165.808 81.8707C172.316 88.9702 176.254 98.0141 176.254 109.082C176.254 148.019 152.509 156.593 129.907 159.103C133.548 162.248 136.792 168.418 136.792 177.876C136.792 191.44 136.674 202.357 136.674 205.696C136.674 208.394 138.501 211.555 143.646 210.559C183.954 197.14 213 159.153 213 114.378C213 58.3871 167.556 13 111.501 13ZM48.0157 157.413C47.7921 157.917 46.9983 158.068 46.2759 157.722C45.5393 157.392 45.1261 156.705 45.364 156.2C45.5829 155.681 46.3782 155.536 47.1125 155.884C47.85 156.215 48.2703 156.908 48.0157 157.413ZM53.0082 161.863C52.5245 162.311 51.5777 162.103 50.9354 161.395C50.2717 160.688 50.1472 159.743 50.6381 159.288C51.1376 158.84 52.0551 159.05 52.7204 159.756C53.3849 160.471 53.5134 161.41 53.0082 161.863ZM56.4339 167.556C55.8114 167.987 54.7948 167.583 54.166 166.681C53.5443 165.78 53.5443 164.699 54.1795 164.266C54.8099 163.832 55.8114 164.222 56.4481 165.117C57.0682 166.033 57.0682 167.114 56.4331 167.556L56.4339 167.556ZM62.2257 174.149C61.6698 174.762 60.4844 174.597 59.6168 173.761C58.7295 172.944 58.4829 171.784 59.0412 171.171C59.6042 170.557 60.796 170.729 61.6698 171.559C62.55 172.375 62.8196 173.543 62.2257 174.149ZM69.7129 176.375C69.4671 177.169 68.3252 177.53 67.1762 177.193C66.028 176.845 65.2771 175.915 65.5086 175.113C65.7473 174.313 66.8939 173.938 68.0517 174.299C69.1983 174.644 69.9516 175.567 69.7129 176.375ZM78.2326 177.319C78.2611 178.155 77.2866 178.848 76.0797 178.864C74.8664 178.891 73.8839 178.214 73.8705 177.391C73.8705 176.547 74.8236 175.861 76.0376 175.84C77.2445 175.816 78.2326 176.488 78.2326 177.319ZM86.6024 176.999C86.7467 177.814 85.9085 178.652 84.7095 178.876C83.532 179.09 82.4409 178.587 82.291 177.778C82.1451 176.942 82.9991 176.104 84.1751 175.887C85.3756 175.679 86.4493 176.169 86.6024 176.999Z" fill="white"/>
</svg>
