<svg width="224" height="224" viewBox="0 0 224 224" fill="none" xmlns="http://www.w3.org/2000/svg">
<g clip-path="url(#clip0_266_1154)">
<path fill-rule="evenodd" clip-rule="evenodd" d="M84.4289 11C73.2074 11.0083 64.1256 20.0967 64.1339 31.2959C64.1256 42.495 73.2157 51.5834 84.4372 51.5917H104.741V31.3041C104.749 20.105 95.6588 11.0166 84.4289 11C84.4372 11 84.4372 11 84.4289 11ZM84.4289 65.1333H30.3033C19.0818 65.1416 9.99173 74.2301 10 85.4292C9.98343 96.6283 19.0735 105.717 30.295 105.733H84.4289C95.6505 105.725 104.741 96.6366 104.732 85.4375C104.741 74.23 95.6505 65.1416 84.4289 65.1333Z" fill="#36C5F0"/>
<path fill-rule="evenodd" clip-rule="evenodd" d="M213 85.4292C213.008 74.2301 203.918 65.1416 192.697 65.1333C181.475 65.1416 172.385 74.2301 172.393 85.4292V105.733H192.697C203.918 105.725 213.008 96.6366 213 85.4292ZM158.866 85.4292V31.2959C158.874 20.105 149.793 11.0166 138.571 11C127.349 11.0083 118.259 20.0967 118.268 31.2959V85.4292C118.251 96.6283 127.341 105.717 138.563 105.733C149.784 105.725 158.874 96.6366 158.866 85.4292Z" fill="#2EB67D"/>
<path fill-rule="evenodd" clip-rule="evenodd" d="M138.563 214C149.784 213.992 158.874 204.903 158.866 193.704C158.874 182.505 149.784 173.417 138.563 173.408H118.26V193.704C118.251 204.895 127.341 213.983 138.563 214ZM138.563 159.858H192.697C203.918 159.85 213.008 150.762 213 139.563C213.017 128.363 203.927 119.275 192.705 119.258H138.571C127.35 119.267 118.26 128.355 118.268 139.554C118.26 150.762 127.341 159.85 138.563 159.858Z" fill="#ECB22E"/>
<path fill-rule="evenodd" clip-rule="evenodd" d="M10 139.563C9.99171 150.762 19.0818 159.85 30.3033 159.858C41.5249 159.85 50.6149 150.762 50.6066 139.563V119.267H30.3033C19.0818 119.275 9.99171 128.363 10 139.563ZM64.1339 139.563V193.696C64.1173 204.895 73.2073 213.984 84.4289 214C95.6505 213.992 104.741 204.903 104.732 193.704V139.579C104.749 128.38 95.6588 119.292 84.4372 119.275C73.2073 119.275 64.1256 128.363 64.1339 139.563Z" fill="#E01E5A"/>
</g>
<defs>
<clipPath id="clip0_266_1154">
<rect width="203" height="203" fill="white" transform="translate(10 11)"/>
</clipPath>
</defs>
</svg>
